<svg xmlns="http://www.w3.org/2000/svg" width="16" height="10" viewBox="0 0 16 10">
    <g fill="none" fill-rule="evenodd">
        <path fill="#E5E5E5" d="M15.88 4.92a4.915 4.915 0 0 1-4.91 4.92 4.915 4.915 0 0 1-4.911-4.92A4.915 4.915 0 0 1 10.969 0a4.915 4.915 0 0 1 4.91 4.92z"/>
        <path fill="#BFBFBF" d="M4.911 9.84a4.915 4.915 0 0 1-4.91-4.92A4.915 4.915 0 0 1 4.91 0a4.915 4.915 0 0 1 4.91 4.92 4.915 4.915 0 0 1-4.91 4.92z"/>
        <path fill="#D9D9D9" d="M6.059 4.92c0 1.572.735 2.973 1.88 3.874A4.915 4.915 0 0 0 9.822 4.92 4.913 4.913 0 0 0 7.94 1.047 4.913 4.913 0 0 0 6.059 4.92z"/>
    </g>
</svg>
