<svg xmlns="http://www.w3.org/2000/svg" width="25" height="8" viewBox="0 0 25 8">
    <path fill="#E5E5E5" fill-rule="evenodd" d="M12.164 4.847L13.73 1.38c.21-.46.659-.76 1.158-.773h1.862V7.88h-2.092V3.64h-.263l-1.566 3.467c-.21.46-.658.759-1.158.773H9.868V.607h2.093v4.24h.203zm-7.717.006l.928-3.286a1.32 1.32 0 0 1 1.204-.96h2.395V7.88H6.579V3.64h-.145l-1.27 4.24H3.566l-1.27-4.24h-.204v4.24H0V.607h2.138c.57.017 1.064.405 1.224.96l.927 3.286h.158zm13.198-.913l6.973.007a2.342 2.342 0 0 1-2.25 1.513H20.04v2.42h-2.394V3.94zM22.368.607c1.323.043 2.37 1.146 2.362 2.486-.005.183-.02.366-.046.547h-3.829c-1.727-.004-3.188-1.299-3.42-3.033h4.933z"/>
</svg>
