<svg xmlns="http://www.w3.org/2000/svg" xmlns:xlink="http://www.w3.org/1999/xlink" width="25" height="11" viewBox="0 0 25 11">
    <defs>
        <path id="a" d="M0 11h25V0H0z"/>
    </defs>
    <g fill="none" fill-rule="evenodd">
        <mask id="b" fill="#fff">
            <use xlink:href="#a"/>
        </mask>
        <path fill="#E5E5E5" d="M17.01 7.733c0 .054-.031.087-.08.087h-.83c-.049 0-.079-.033-.079-.087V3.161c0-.054.03-.087.08-.087h.829c.049 0 .08.033.08.087v4.572zm4.693-1.478l.705-3.108c.012-.047.042-.073.091-.073h.841c.055 0 .086.04.068.093 0 0-.933 4.11-1.031 4.573-.011.053-.037.08-.085.08h-1.116c-.05 0-.08-.026-.086-.08a19.284 19.284 0 0 0-.22-1.111l-.189-.87a15.54 15.54 0 0 1-.122-.69c-.012-.094-.085-.094-.097 0-.037.234-.086.509-.122.69l-.19.87c-.079.368-.146.723-.22 1.111-.005.054-.036.08-.084.08h-1.117c-.048 0-.073-.028-.085-.08-.108-.463-1.03-4.573-1.03-4.573-.02-.053.011-.093.066-.093h.842c.049 0 .08.026.092.073l.696 3.108.767-3.108c.013-.047.043-.073.086-.073h.695c.043 0 .073.026.086.073l.76 3.108zM25 7.733c0 .054-.03.087-.08.087h-.829c-.048 0-.08-.033-.08-.087V3.161c0-.054.032-.087.08-.087h.83c.049 0 .079.033.079.087v4.572zM15.051 8.98c-.037.033-.08.026-.11-.014l-.292-.428c-.269-.395-.61-.643-1.245-.643-1.195 0-1.946-.944-1.946-2.444 0-1.506.75-2.45 1.946-2.45s1.94.944 1.94 2.45c0 .764-.244 1.54-.653 1.808-.073.047-.073.067 0 .094.354.14.519.308.708.575l.274.409c.03.04.024.087-.012.12l-.61.523zm-1.647-2.05c.592 0 .945-.561.945-1.479 0-.937-.353-1.48-.945-1.48-.58 0-.952.543-.952 1.48 0 .918.373 1.48.952 1.48zM8.296 6.91c-.094-.029-.164-.008-.199.057-.052.098-.014.292.092.46.107.172.198.258.271.258.025 0 .047-.01.064-.03.041-.048.054-.147.037-.272-.017-.128-.094-.391-.265-.473m-1.06.798a.279.279 0 0 0-.225.096c-.126.16-.07.439.124.611a.5.5 0 0 0 .325.12.343.343 0 0 0 .285-.13c.113-.154.048-.372-.164-.556a.536.536 0 0 0-.344-.141m3.148 3.107C9.427 9.602 8.606 9.27 7.848 9.062a15.73 15.73 0 0 0-.317-.082l-.04-.01c-.638-.16-1.238-.315-1.848-.947l-.025-.026a4.649 4.649 0 0 1-.503-.647 6.096 6.096 0 0 1-.136-.218c-.13-.215-.12.319-.07.962l.002.032-.122.002c-.857 0-1.574-.306-2.192-.937-.618-.631-.918-1.38-.918-2.293 0-.914.292-1.667.893-2.302.597-.633 1.323-.94 2.217-.94.873 0 1.6.307 2.222.938.62.631.922 1.39.922 2.322 0 .12-.005.236-.015.35l-.03-.002c-.532-.034-.994-.027-1.026.006-.077.078.136.067.232.093.156.043.3.095.435.156.106.047.205.1.297.158l.028.018c.565.366.885.933.989 1.68.004.03.021.07.053.017a5.69 5.69 0 0 0 .54-1.182l.005.002a5.247 5.247 0 0 0 .076-.329c.063-.323.096-.656.096-.996 0-.883-.216-1.712-.643-2.465A4.682 4.682 0 0 0 7.203.642 4.86 4.86 0 0 0 4.754 0C3.91 0 3.11.219 2.377.65A4.713 4.713 0 0 0 .635 2.442 5.005 5.005 0 0 0 0 4.91c0 .882.214 1.71.636 2.458a4.651 4.651 0 0 0 1.762 1.774 4.802 4.802 0 0 0 2.42.642c.183 0 .364-.01.542-.03a43.697 43.697 0 0 0 .441-.037c.506-.046.99-.093 1.477-.072.916.039 1.844.321 2.946 1.319.11.1.258-.025.161-.149" mask="url(#b)"/>
    </g>
</svg>
