<?xml version="1.0" encoding="UTF-8"?>
<svg width="75px" height="34px" viewBox="0 0 75 34" version="1.1" xmlns="http://www.w3.org/2000/svg" xmlns:xlink="http://www.w3.org/1999/xlink">
    <!-- Generator: Sketch 46.1 (44463) - http://www.bohemiancoding.com/sketch -->
    <title>QIWI_logo_RGB</title>
    <desc>Created with Sketch.</desc>
    <defs>
        <polygon id="path-1" points="0 34 75 34 75 0 0 0"></polygon>
    </defs>
    <g id="FINAL" stroke="none" stroke-width="1" fill="none" fill-rule="evenodd">
        <g id="Виджет-3" transform="translate(-380.000000, -218.000000)">
            <g id="QIWI_logo_RGB" transform="translate(380.000000, 218.000000)">
                <mask id="mask-2" fill="white">
                    <use xlink:href="#path-1"></use>
                </mask>
                <g id="Clip-2"></g>
                <path d="M51.3967387,22.6225873 C51.3967387,22.7647416 51.3062601,22.8537356 51.1618964,22.8537356 L48.7121372,22.8537356 C48.5673714,22.8537356 48.477697,22.7647416 48.477697,22.6225873 L48.477697,10.4284316 C48.477697,10.2858836 48.5673714,10.196102 48.7121372,10.196102 L51.1618964,10.196102 C51.3062601,10.196102 51.3967387,10.2858836 51.3967387,10.4284316 L51.3967387,22.6225873 Z M65.2624886,18.6796777 L67.3422907,10.3922039 C67.37808,10.267376 67.4677544,10.196102 67.6125202,10.196102 L70.0980688,10.196102 C70.2601261,10.196102 70.3510068,10.3032099 70.2971218,10.4457579 C70.2971218,10.4457579 67.5405395,21.4058101 67.25141,22.6403074 C67.2192398,22.780099 67.1436399,22.8541294 66.9996783,22.8541294 L63.7030391,22.8541294 C63.5582733,22.8541294 63.4681968,22.7828554 63.450101,22.6403074 C63.2522544,21.6042747 63.0540057,20.6588112 62.8010676,19.6763325 L62.2433171,17.3557926 C62.1351449,16.8911333 61.9907812,16.1417718 61.882609,15.5168444 C61.8468197,15.2660072 61.6308773,15.2660072 61.5942838,15.5168444 C61.4865137,16.1417718 61.3417478,16.873807 61.2339777,17.3557926 L60.6758251,19.6763325 C60.4413849,20.6588112 60.2431362,21.6042747 60.0267917,22.6403074 C60.0082939,22.7828554 59.9186195,22.8541294 59.7750601,22.8541294 L56.4772145,22.8541294 C56.3332529,22.8541294 56.26087,22.7797052 56.2250807,22.6403074 C55.9061938,21.4058101 53.1801731,10.4457579 53.1801731,10.4457579 C53.1262881,10.3032099 53.2163646,10.196102 53.3780197,10.196102 L55.8647747,10.196102 C56.0091383,10.196102 56.0988127,10.267376 56.1354063,10.3922039 L58.1934936,18.6796777 L60.4590785,10.3922039 C60.49527,10.267376 60.5857486,10.196102 60.7116144,10.196102 L62.7652783,10.196102 C62.8915463,10.196102 62.9816228,10.267376 63.0182164,10.3922039 L65.2624886,18.6796777 Z M75,22.6225873 C75,22.7647416 74.9099235,22.8537356 74.7655598,22.8537356 L72.3158006,22.8537356 C72.171839,22.8537356 72.0813604,22.7647416 72.0813604,22.6225873 L72.0813604,10.4284316 C72.0813604,10.2858836 72.171839,10.196102 72.3158006,10.196102 L74.7655598,10.196102 C74.9099235,10.196102 75,10.2858836 75,10.4284316 L75,22.6225873 Z M45.6121382,25.943326 C45.503966,26.0323201 45.3785023,26.0138125 45.2876215,25.9067046 L44.4234501,24.7647453 C43.6304551,23.7109926 42.6215178,23.0510189 40.7472027,23.0510189 C37.2161233,23.0510189 35,20.5331957 35,16.5339757 C35,12.5170357 37.2161233,10 40.7472027,10 C44.2786842,10 46.4771139,12.5170357 46.4771139,16.5339757 C46.4771139,18.5698134 45.7560998,20.6403036 44.5489138,21.3554064 C44.3325693,21.4794468 44.3325693,21.5330007 44.5489138,21.6050623 C45.5940425,21.9791524 46.0806165,22.4256978 46.6391712,23.1396192 L47.4498598,24.2284183 C47.5403384,24.3367075 47.5218405,24.4607479 47.4136683,24.5505295 L45.6121382,25.943326 Z M40.7472027,20.4796418 C42.4952499,20.4796418 43.5399765,18.9801312 43.5399765,16.5339757 C43.5399765,14.0346601 42.4952499,12.5887035 40.7472027,12.5887035 C39.0361512,12.5887035 37.9363332,14.0346601 37.9363332,16.5339757 C37.9363332,18.9801312 39.0361512,20.4796418 40.7472027,20.4796418 L40.7472027,20.4796418 Z" id="Fill-1" fill="#0023A0" mask="url(#mask-2)"></path>
                <path d="M25.4846166,21.3568823 C25.19643,21.2699556 24.98029,21.334241 24.8740112,21.5347789 C24.7128018,21.837203 24.8314201,22.4363908 25.1566252,22.9583554 C25.4866069,23.4863846 25.7660365,23.7548467 25.9893413,23.7548467 C26.0661645,23.7548467 26.1346288,23.7216932 26.1871711,23.6586208 C26.3117601,23.5130691 26.352361,23.2070062 26.3006147,22.819677 C26.2476744,22.4246658 26.011632,21.6103849 25.4846166,21.3568823 M22.2309734,23.8247923 C21.9356218,23.8247923 21.6900263,23.9307216 21.5387681,24.1223647 C21.1510695,24.6136017 21.3246184,25.4780171 21.9189038,26.0113024 C22.178033,26.2441851 22.5510038,26.3828635 22.9176059,26.3828635 C23.2909748,26.3828635 23.6022483,26.2393334 23.7941073,25.9785532 C24.1396129,25.5022757 23.9405889,24.8282905 23.2873924,24.2606388 C22.9649736,23.9796432 22.5892164,23.8247923 22.2309734,23.8247923 M31.9027404,33.4291832 C28.9595745,29.6796096 26.4375432,28.6502356 24.1081671,28.0110211 C23.7805737,27.9212642 23.4569608,27.8383806 23.1357362,27.7575185 C23.0939411,27.7470064 23.0525442,27.7360901 23.0107491,27.7259823 C21.0511595,27.2315108 19.2085959,26.7507859 17.3357807,24.7971586 C17.3099076,24.7708784 17.2840345,24.7445982 17.2581614,24.7171051 C16.7466698,24.1720949 16.2327901,23.5150907 15.7133376,22.7177908 C15.5736228,22.503102 15.433908,22.280327 15.2941932,22.0446141 C14.8965434,21.3783108 14.9283872,23.0299183 15.0796454,25.017912 C15.0820337,25.0502568 15.08482,25.083006 15.0872083,25.1157551 C14.9630174,25.1193939 14.8380303,25.1238413 14.7118492,25.1238413 C12.0775684,25.1238413 9.87516952,24.1757337 7.97847144,22.2265538 C6.08097726,20.2761609 5.1590984,17.9586544 5.1590984,15.1389944 C5.1590984,12.3144828 6.05510415,9.98646411 7.90085211,8.02313336 C9.73625082,6.06869742 11.9645228,5.11937687 14.7118492,5.11937687 C17.3946918,5.11937687 19.6265462,6.06748449 21.5367779,8.01828163 C23.4438252,9.96827015 24.3716748,12.3161 24.3716748,15.1951936 C24.3716748,15.5651375 24.3557529,15.9253779 24.3251032,16.2775322 C24.2936574,16.2755106 24.2622116,16.2734891 24.2307658,16.2714675 C22.5979735,16.1651339 21.1785348,16.1877753 21.0794209,16.2880443 C20.8421843,16.5298218 21.4977692,16.4950511 21.7915285,16.5767218 C22.2711762,16.7097399 22.7169898,16.8706554 23.1305615,17.0582554 C23.4537764,17.20502 23.757885,17.3683614 24.0420911,17.5482794 C24.0707506,17.5660691 24.0998081,17.5838587 24.1280695,17.6032656 C25.8627621,18.7341215 26.8467364,20.4868066 27.1647767,22.7942054 C27.1771161,22.8867925 27.2316487,23.012533 27.3291704,22.8467658 C28.2383118,21.2784461 28.7267165,20.0558118 28.9894281,19.193418 L29.0013695,19.2002913 C29.0447567,19.0377585 29.0853576,18.8736086 29.1235702,18.7102672 C29.1745203,18.5048776 29.2111407,18.3285983 29.2366158,18.1842595 C29.4308632,17.1844002 29.5303751,16.1558348 29.5303751,15.1038194 C29.5303751,12.3763422 28.8668293,9.813015 27.5564558,7.4866136 C26.244888,5.15657341 24.4186444,3.30604523 22.127879,1.98516351 C19.8438803,0.667920596 17.3126939,0 14.6047743,0 C12.0110944,0 9.5539449,0.675602491 7.30298421,2.00942213 C5.05043133,3.34364608 3.25045888,5.20670789 1.95202674,7.54766446 C0.656380932,9.8837693 0,12.4511396 0,15.176191 C0,17.9040725 0.657177028,20.4601221 1.95521112,22.772777 C3.25443936,25.0910922 5.07550835,26.9363643 7.36706992,28.2576503 C9.64907834,29.5748933 12.1500131,30.2424095 14.8006138,30.2424095 C15.3638516,30.2424095 15.9183322,30.2100647 16.4668422,30.1498225 C16.6053629,30.1389061 16.7446796,30.1275854 16.8828022,30.1162647 C17.1988522,30.0907932 17.5117178,30.0628958 17.8221952,30.0345941 C19.375378,29.8934898 20.8616887,29.7463208 22.3567565,29.8106062 C25.1729451,29.9318992 28.0217737,30.8048052 31.4079669,33.8876711 C31.7471037,34.1965642 32.2016744,33.8104478 31.9027404,33.4291832" id="Fill-3" fill="#FF8C00" mask="url(#mask-2)"></path>
            </g>
        </g>
    </g>
</svg>