<svg xmlns="http://www.w3.org/2000/svg" width="23" height="7" viewBox="0 0 23 7">
    <path fill="#E5E5E5" fill-rule="evenodd" d="M8.75.025L5.729 6.943h-1.97L2.274 1.522a.766.766 0 0 0-.439-.634A8.04 8.04 0 0 0 0 .254L.04 0h3.165c.435.023.793.33.857.736l.782 3.886L6.781 0l1.97.025zm7.692 4.648c0-1.782-2.624-1.902-2.604-2.676 0-.24.25-.5.79-.564.629-.056 1.263.05 1.834.304l.324-1.433a5.285 5.285 0 0 0-1.74-.298c-1.836 0-3.131.92-3.145 2.232 0 .97.925 1.516 1.626 1.839.702.323.965.545.965.837 0 .456-.58.634-1.113.634a4.103 4.103 0 0 1-1.93-.393l-.337 1.484c.66.241 1.363.364 2.071.36 1.957 0 3.232-.906 3.239-2.313l.02-.013zm4.838 2.283H23L21.516.026H19.93a.923.923 0 0 0-.79.576l-2.792 6.34h1.95l.39-1.153h2.39l.202 1.167zM19.222 4.35l.978-2.537.567 2.537h-1.545zM11.395.025L9.857 6.943H7.995L9.54.025h1.855z"/>
</svg>
